HIERARCHY
ROOT Hips
{
	OFFSET 0.00 0.00 0.00
	CHANNELS 6 Xposition Yposition Zposition Yrotation Xrotation Zrotation
	JOINT Spine
	{
		OFFSET	0.0000	9.2263	1.5771
		CHANNELS 3 Xrotation Yrotation Zrotation
		JOINT Spine1
		{
			OFFSET	0.0000	16.2540	-0.1656
			CHANNELS 3 Xrotation Yrotation Zrotation
			JOINT Spine2
			{
				OFFSET	0.0000	13.6396	-1.2923
				CHANNELS 3 Xrotation Yrotation Zrotation
				JOINT Neck
				{
					OFFSET	0.0000	13.8774	-4.3542
					CHANNELS 3 Xrotation Yrotation Zrotation
					JOINT Neck1
					{
						OFFSET	0.0000	4.3400	0.9269
						CHANNELS 3 Xrotation Yrotation Zrotation
						JOINT Head
						{
							OFFSET	0.0000	4.0266	0.8585
							CHANNELS 3 Xrotation Yrotation Zrotation
							End Site
							{
								OFFSET 0.0000 23.0297 0.1231
							}
						}
					}
				}
				JOINT LeftShoulder
				{
					OFFSET	6.1442	10.1870	-3.7932
					CHANNELS 3 Zrotation Xrotation Yrotation
					JOINT LeftArm
					{
						OFFSET	12.3191	-1.1130	-1.7935
						CHANNELS 3 Zrotation Xrotation Yrotation
						JOINT LeftForeArm
						{
							OFFSET	27.6870	0.0000	0.0000
							CHANNELS 3 Xrotation Zrotation Yrotation
							JOINT LeftHand
							{
								OFFSET	27.8738	0.0000	0.0000
								CHANNELS 3 Zrotation Yrotation Xrotation
								JOINT LeftHandThumb1
								{
									OFFSET	2.3785	-1.0029	2.6209
									CHANNELS 3 Zrotation Xrotation Yrotation
									JOINT LeftHandThumb2
									{
										OFFSET	3.3624	-1.0029	2.8398
										CHANNELS 3 Zrotation Xrotation Yrotation
										JOINT LeftHandThumb3
										{
											OFFSET	4.5018	-1.3445	2.1783
											CHANNELS 3 Zrotation Xrotation Yrotation
											End Site
											{
												OFFSET 2.6000 -1.0000 1.0000
											}
										}
									}
								}
								JOINT LeftHandMiddle1
								{
									OFFSET	10.4639	0.6148	0.4298
									CHANNELS 3 Zrotation Xrotation Yrotation
									JOINT LeftHandMiddle2
									{
										OFFSET	5.7921	0.0000	0.0000
										CHANNELS 3 Zrotation Xrotation Yrotation
										JOINT LeftHandMiddle3
										{
											OFFSET	3.7132	0.0000	0.0000
											CHANNELS 3 Zrotation Xrotation Yrotation
											End Site
											{
												OFFSET 2.3000 0.0000 0.0000
											}
										}
									}
								}
								JOINT LeftHandIndex1
								{
									OFFSET	10.3945	0.6148	2.7055
									CHANNELS 3 Zrotation Xrotation Yrotation
									JOINT LeftHandIndex2
									{
										OFFSET	5.5493	0.0000	0.0000
										CHANNELS 3 Zrotation Xrotation Yrotation
										JOINT LeftHandIndex3
										{
											OFFSET	3.3911	0.0000	0.0000
											CHANNELS 3 Zrotation Xrotation Yrotation
											End Site
											{
												OFFSET 2.5000 0.0000 0.0000
											}
										}
									}
								}
								JOINT LeftHandRing1
								{
									OFFSET	10.3252	0.3211	-1.8755
									CHANNELS 3 Zrotation Xrotation Yrotation
									JOINT LeftHandRing2
									{
										OFFSET	5.4452	0.0000	0.0000
										CHANNELS 3 Zrotation Xrotation Yrotation
										JOINT LeftHandRing3
										{
											OFFSET	3.7132	0.0000	0.0000
											CHANNELS 3 Zrotation Xrotation Yrotation
											End Site
											{
												OFFSET 2.0000 0.0000 0.0000
											}
										}
									}
								}
								JOINT LeftHandPinky1
								{
									OFFSET	10.0130	-0.0783	-3.9671
									CHANNELS 3 Zrotation Xrotation Yrotation
									JOINT LeftHandPinky2
									{
										OFFSET	3.6763	0.0000	0.0000
										CHANNELS 3 Zrotation Xrotation Yrotation
										JOINT LeftHandPinky3
										{
											OFFSET	2.8113	0.0000	0.0000
											CHANNELS 3 Zrotation Xrotation Yrotation
											End Site
											{
												OFFSET 2.9000 0.0000 0.0000
											}
										}
									}
								}
							}
						}
					}
				}
				JOINT RightShoulder
				{
					OFFSET	-6.1402	10.1870	-3.7932
					CHANNELS 3 Zrotation Xrotation Yrotation
					JOINT RightArm
					{
						OFFSET	-12.3231	-1.1130	-1.7935
						CHANNELS 3 Zrotation Xrotation Yrotation
						JOINT RightForeArm
						{
							OFFSET	-27.6870	0.0000	0.0000
							CHANNELS 3 Xrotation Zrotation Yrotation
							JOINT RightHand
							{
								OFFSET	-27.8738	0.0000	0.0000
								CHANNELS 3 Zrotation Yrotation Xrotation
								JOINT RightHandThumb1
								{
									OFFSET	-2.5178	-0.9367	2.5137
									CHANNELS 3 Zrotation Xrotation Yrotation
									JOINT RightHandThumb2
									{
										OFFSET	-3.2638	-1.0870	2.9669
										CHANNELS 3 Zrotation Xrotation Yrotation
										JOINT RightHandThumb3
										{
											OFFSET	-4.4165	-1.3703	2.1350
											CHANNELS 3 Zrotation Xrotation Yrotation
											End Site
											{
												OFFSET -2.6000 -1.0000 1.0000
											}
										}
									}
								}
								JOINT RightHandIndex1
								{
									OFFSET	-10.4665	0.4896	2.7120
									CHANNELS 3 Zrotation Xrotation Yrotation
									JOINT RightHandIndex2
									{
										OFFSET	-5.3768	0.0000	0.0000
										CHANNELS 3 Zrotation Xrotation Yrotation
										JOINT RightHandIndex3
										{
											OFFSET	-3.3855	0.0000	0.0000
											CHANNELS 3 Zrotation Xrotation Yrotation
											End Site
											{
												OFFSET -2.6000 0.0000 0.0000
											}
										}
									}
								}
								JOINT RightHandMiddle1
								{
									OFFSET	-10.7596	0.4896	0.4278
									CHANNELS 3 Zrotation Xrotation Yrotation
									JOINT RightHandMiddle2
									{
										OFFSET	-5.6168	0.0000	0.0000
										CHANNELS 3 Zrotation Xrotation Yrotation
										JOINT RightHandMiddle3
										{
											OFFSET	-3.7364	0.0000	0.0000
											CHANNELS 3 Zrotation Xrotation Yrotation
											End Site
											{
												OFFSET -2.3000 0.0000 0.0000
											}
										}
									}
								}
								JOINT RightHandRing1
								{
									OFFSET	-10.4702	0.3879	-1.9363
									CHANNELS 3 Zrotation Xrotation Yrotation
									JOINT RightHandRing2
									{
										OFFSET	-5.4013	0.0000	0.0000
										CHANNELS 3 Zrotation Xrotation Yrotation
										JOINT RightHandRing3
										{
											OFFSET	-3.3916	0.0000	0.0000
											CHANNELS 3 Zrotation Xrotation Yrotation
											End Site
											{
												OFFSET -2.2000 0.0000 0.0000
											}
										}
									}
								}
								JOINT RightHandPinky1
								{
									OFFSET	-9.9715	-0.1191	-3.9540
									CHANNELS 3 Zrotation Xrotation Yrotation
									JOINT RightHandPinky2
									{
										OFFSET	-3.6528	0.0000	0.0000
										CHANNELS 3 Zrotation Xrotation Yrotation
										JOINT RightHandPinky3
										{
											OFFSET	-2.7820	0.0000	0.0000
											CHANNELS 3 Zrotation Xrotation Yrotation
											End Site
											{
												OFFSET -2.9000 0.0000 0.0000
											}
										}
									}
								}
							}
						}
					}
				}
			}
		}
	}
	JOINT LeftUpLeg
	{
		OFFSET	9.6338	-3.2733	0.0000
		CHANNELS 3 Xrotation Yrotation Zrotation
		JOINT LeftLeg
		{
			OFFSET	0.0000	-41.7300	-1.7300
			CHANNELS 3 Xrotation Yrotation Zrotation
			JOINT LeftFoot
			{
				OFFSET	0.0126	-39.1900	-0.8477
				CHANNELS 3 Xrotation Yrotation Zrotation
				JOINT LeftToeBase
				{
					OFFSET	-0.1833	-12.1931	8.2823
					CHANNELS 3 Xrotation Yrotation Zrotation
					End Site
					{
						OFFSET 0.0000 0.0000 10.1681
					}
				}
			}
		}
	}
	JOINT RightUpLeg
	{
		OFFSET	-9.6338	-3.2733	0.0000
		CHANNELS 3 Xrotation Yrotation Zrotation
		JOINT RightLeg
		{
			OFFSET	0.0000	-41.7300	-1.7300
			CHANNELS 3 Xrotation Yrotation Zrotation
			JOINT RightFoot
			{
				OFFSET	0.0126	-39.1900	-0.8477
				CHANNELS 3 Xrotation Yrotation Zrotation
				JOINT RightToeBase
				{
					OFFSET	-0.1833	-12.1931	8.2823
					CHANNELS 3 Xrotation Yrotation Zrotation
					End Site
					{
						OFFSET 0.0032 0.0000 10.1681
					}
				}
			}
		}
	}
}
MOTION
Frames: 4
Frame Time: 0.0333333
-1.4702 95.8617 3.5566 -6.0864 3.2867 -1.4006 -1.4630 1.6152 0.4786 -2.9398 3.2186 0.9659 -2.9398 3.2186 0.9659 7.0933 -4.7877 -1.2474 -0.0000 0.0000 -0.0000 17.4349 -28.8246 18.5854 -7.7466 -0.3105 -1.3026 -70.9711 33.1658 7.6103 0.0186 -0.0030 -26.6981 0.9677 10.7187 -8.8434 3.5107 -0.2896 8.2170 0.5045 -2.4802 -6.3884 3.6508 -3.2616 -4.2510 -19.5136 1.0272 -4.8440 -31.9504 1.3447 -5.2242 0.0000 -0.0000 0.0000 -15.3133 1.2186 -4.7165 -27.0266 0.3562 -1.7899 0.0000 0.0000 0.0000 -37.3154 -0.4738 -6.4651 -46.7530 3.8298 -8.3032 0.0000 0.0000 -0.0000 -38.0573 -1.7441 -6.6291 -52.0488 7.2763 -11.9332 -0.0000 0.0000 -0.0000 -0.8968 1.5567 9.2179 38.6667 18.7574 13.9008 -0.0280 0.0242 72.2855 -23.6132 17.9850 72.7716 5.4140 26.4075 -8.2144 2.4177 -0.6001 8.3973 -3.1411 -3.0303 4.2392 63.7298 2.3962 3.7631 73.1746 1.3895 2.1809 0.0000 0.0000 -0.0000 64.4389 4.5974 9.7990 71.4754 5.8214 8.3381 -0.0000 0.0000 0.0000 70.4949 8.5826 13.2974 63.0471 5.9867 9.9011 0.0000 -0.0000 0.0000 68.3937 3.2686 18.2206 73.5139 13.6035 15.2152 -0.0000 0.0000 -0.0000 -11.4203 5.2714 3.8311 17.9556 -0.0728 -0.5395 -9.7307 12.9303 -1.1418 -0.6838 -0.0273 0.0642 -7.8885 -6.9228 1.7323 12.1387 -0.0172 0.3169 -7.1514 11.8614 -1.2304 -0.0122 -0.1100 0.2627 
-1.4055 95.8632 3.3050 -6.2266 3.2563 -1.3430 -1.4239 1.6182 0.4678 -2.8614 3.2252 0.9439 -2.8614 3.2252 0.9439 7.0818 -4.7647 -1.2276 -0.0000 0.0000 -0.0000 17.4530 -28.6811 18.6012 -7.7451 -0.3113 -1.3021 -70.9399 33.1729 7.8834 0.0160 -0.0031 -26.7318 0.5767 10.9623 -8.9104 3.4991 -0.2672 8.2705 0.5045 -2.4802 -6.3884 3.6508 -3.2616 -4.2510 -19.6217 1.0364 -4.8622 -32.0190 1.3510 -5.2354 0.0000 -0.0000 -0.0000 -15.5499 1.2383 -4.7318 -27.2639 0.3640 -1.8088 0.0000 -0.0000 -0.0000 -37.3111 -0.4743 -6.4642 -46.7443 3.8285 -8.3021 -0.0000 -0.0000 -0.0000 -38.0255 -1.7479 -6.6206 -52.0171 7.2697 -11.9301 -0.0000 0.0000 0.0000 -0.8849 1.5582 9.1992 38.1677 18.7473 14.6849 -0.0284 0.0237 71.7184 -23.3447 17.7929 72.2195 5.2658 26.2879 -8.4966 2.3503 -0.5082 8.1364 -3.1411 -3.0303 4.2393 59.8339 2.8035 4.0510 69.3452 1.2401 2.1018 0.0000 0.0000 -0.0000 61.0123 4.0186 9.6928 68.0492 5.3436 8.1530 -0.0000 0.0000 0.0000 67.2531 8.0531 12.7306 59.7289 5.4165 9.6050 0.0000 -0.0000 -0.0000 65.1618 2.8684 17.0611 70.6587 12.8522 15.1241 -0.0000 0.0000 -0.0000 -11.5479 5.3286 3.7465 17.9575 -0.0704 -0.5395 -9.5818 13.0208 -1.0909 -0.6447 -0.0272 0.0641 -8.2361 -6.8022 1.6278 12.4832 -0.0130 0.3305 -7.1284 11.8772 -1.2313 -0.0122 -0.1100 0.2627 
-1.3505 95.8648 3.0772 -6.4500 3.2577 -1.2934 -1.4119 1.6354 0.4572 -2.8372 3.2597 0.9236 -2.8372 3.2597 0.9236 7.1440 -4.7524 -1.2000 -0.0000 0.0000 -0.0000 17.6964 -28.5655 18.5928 -7.7050 -0.3073 -1.3006 -71.0150 33.1999 8.2736 0.0150 -0.0033 -26.7759 0.0576 11.2963 -9.0862 3.4871 -0.2444 8.3252 0.5045 -2.4802 -6.3884 3.6508 -3.2616 -4.2510 -19.7952 1.0512 -4.8915 -32.1292 1.3611 -5.2534 -0.0000 0.0000 0.0000 -15.8418 1.2627 -4.7507 -27.5565 0.3738 -1.8322 -0.0000 -0.0000 -0.0000 -37.3365 -0.4715 -6.4691 -46.7575 3.8304 -8.3038 -0.0000 0.0000 0.0000 -38.0059 -1.7503 -6.6154 -51.9976 7.2657 -11.9282 -0.0000 0.0000 0.0000 -0.8286 1.5732 9.2032 37.7176 18.7421 15.4034 -0.0282 0.0238 71.0516 -23.0994 17.8989 71.7196 5.1060 26.1614 -8.7980 2.2789 -0.4092 7.8575 -3.1411 -3.0303 4.2392 55.6596 3.2332 4.3350 65.2481 1.0865 2.0064 0.0000 0.0000 0.0000 57.3462 3.4140 9.5444 64.3843 4.8467 7.9252 -0.0000 0.0000 0.0000 63.7812 7.5213 12.1008 56.1789 4.8256 9.2520 -0.0000 0.0000 0.0000 61.6972 2.4982 15.8000 67.6116 12.0542 14.9848 0.0000 0.0000 -0.0000 -11.6741 5.3731 3.6693 17.9480 -0.0681 -0.5389 -9.4518 13.2069 -1.0453 -0.6419 -0.0272 0.0641 -8.5792 -6.6803 1.5387 12.7732 -0.0093 0.3421 -7.0839 11.9747 -1.2321 -0.0122 -0.1100 0.2627 
-1.3128 95.8666 2.8758 -6.6461 3.2828 -1.2945 -1.4253 1.6497 0.4569 -2.8640 3.2881 0.9226 -2.8640 3.2881 0.9226 7.2536 -4.7580 -1.1617 -0.0000 0.0000 -0.0000 18.0858 -28.5228 18.6093 -7.6540 -0.3034 -1.3002 -71.2036 33.2546 8.8105 0.0157 -0.0034 -26.9138 -0.2670 11.6613 -9.3454 3.4749 -0.2211 8.3811 0.5045 -2.4802 -6.3884 3.6508 -3.2616 -4.2510 -20.0286 1.0712 -4.9309 -32.2774 1.3748 -5.2775 0.0000 -0.0000 -0.0000 -16.1833 1.2913 -4.7726 -27.8990 0.3854 -1.8594 -0.0000 -0.0000 -0.0000 -37.4102 -0.4633 -6.4833 -46.7958 3.8360 -8.3085 0.0000 0.0000 -0.0000 -37.9993 -1.7511 -6.6136 -51.9910 7.2643 -11.9275 -0.0000 0.0000 -0.0000 -0.7643 1.5898 9.2030 37.3909 18.7493 16.0377 -0.0275 0.0244 70.2591 -23.0009 18.2472 71.4746 5.0181 26.0114 -9.0828 2.1528 -0.3119 7.6154 -3.1411 -3.0303 4.2392 50.7648 3.5374 4.7220 60.3284 0.9118 1.8777 0.0000 -0.0000 0.0000 53.7267 2.8343 9.3634 60.7668 4.3725 7.6712 -0.0000 0.0000 0.0000 60.3499 7.0330 11.4574 52.6743 4.2639 8.8681 0.0000 0.0000 0.0000 58.2711 2.1929 14.5379 64.6105 11.2748 14.8054 -0.0000 0.0000 -0.0000 -11.8455 5.3797 3.6566 18.0040 -0.0675 -0.5412 -9.3669 13.3904 -1.0134 -0.6592 -0.0272 0.0641 -8.8299 -6.6186 1.5209 12.8883 -0.0077 0.3465 -6.9717 12.1003 -1.2381 -0.0122 -0.1100 0.2627 
